<svg width="624" height="534" viewBox="0 0 624 534" fill="none" xmlns="http://www.w3.org/2000/svg">
<path d="M445.875 379.089L340.023 454.558H292.977L187.125 379.089L316.5 292.839L445.875 379.089Z" fill="#FFF3F0"/>
<path d="M187.125 379.089V519.246C187.125 522.105 188.261 524.847 190.283 526.869C192.305 528.891 195.047 530.027 197.906 530.027H435.094C437.953 530.027 440.695 528.891 442.717 526.869C444.739 524.847 445.875 522.105 445.875 519.246V379.089L316.5 292.839L187.125 379.089Z" fill="white" stroke="#D6D6D6" stroke-width="6" stroke-linecap="round" stroke-linejoin="round"/>
<path d="M292.977 454.558L190.449 526.98" stroke="#D6D6D6" stroke-width="6" stroke-linecap="round" stroke-linejoin="round"/>
<path d="M442.552 526.98L340.022 454.557" stroke="#D6D6D6" stroke-width="6" stroke-linecap="round" stroke-linejoin="round"/>
<path d="M445.875 379.089L340.023 454.558H292.977L187.125 379.089" stroke="#D6D6D6" stroke-width="6" stroke-linecap="round" stroke-linejoin="round"/>
<path d="M33 118.714H598L437.866 380.788L338.664 451.714H294.35L195.148 380.788L33 118.714Z" fill="url(#paint0_linear)" fill-opacity="0.8"/>
<path opacity="0.3" d="M187.256 79.4196C184.626 82.2503 181.512 84.5885 178.06 86.3243L178.06 86.3242C177.092 91.799 174.736 96.9342 171.218 101.239C167.7 105.545 163.138 108.877 157.966 110.917C152.794 112.957 147.185 113.637 141.675 112.893C136.166 112.149 130.939 110.005 126.493 106.665L126.495 106.663C132.799 107.455 139.197 106.375 144.89 103.555L144.89 103.556C139.856 98.9854 136.379 92.9544 134.945 86.3082C133.512 79.662 134.195 72.7339 136.897 66.4952L136.897 66.4952C138.915 70.8145 141.857 74.6373 145.517 77.6927C149.176 80.7482 153.463 82.9615 158.073 84.176L158.072 84.1761C157.907 81.7536 158.615 79.3523 160.068 77.4066C161.52 75.4609 163.621 74.0995 165.991 73.5687C168.36 73.0379 170.841 73.3728 172.985 74.5128C175.128 75.6528 176.793 77.5225 177.678 79.7836L177.678 79.7848C180.871 80.1345 184.099 80.0115 187.256 79.4196" fill="#FFA573"/>
<path d="M187.256 79.4196C184.626 82.2503 181.512 84.5885 178.06 86.3243L178.06 86.3242C177.092 91.799 174.736 96.9342 171.218 101.239C167.7 105.545 163.138 108.877 157.966 110.917C152.794 112.957 147.185 113.637 141.675 112.893C136.166 112.149 130.939 110.005 126.493 106.665L126.495 106.663C132.799 107.455 139.197 106.375 144.89 103.555L144.89 103.556C139.856 98.9854 136.379 92.9544 134.945 86.3082C133.512 79.662 134.195 72.7339 136.897 66.4952L136.897 66.4952C138.915 70.8145 141.857 74.6373 145.517 77.6927C149.176 80.7482 153.463 82.9615 158.073 84.176L158.072 84.1761C157.907 81.7536 158.615 79.3523 160.068 77.4066C161.52 75.4609 163.621 74.0995 165.991 73.5687C168.36 73.0379 170.841 73.3728 172.985 74.5128C175.128 75.6528 176.793 77.5225 177.678 79.7836L177.678 79.7848C180.871 80.1345 184.099 80.0115 187.256 79.4196" stroke="#FE765D" stroke-width="4.6" stroke-linecap="round" stroke-linejoin="round"/>
<path opacity="0.3" d="M563.205 108.97L571.332 96.4772C571.626 96.0253 572.087 95.7088 572.614 95.5971C573.142 95.4855 573.692 95.5879 574.144 95.8818L608.216 118.046C608.668 118.34 608.984 118.802 609.096 119.329C609.208 119.856 609.105 120.406 608.811 120.858L600.684 133.351C589.046 151.243 570.005 147.292 566.319 146.325C565.904 146.221 565.536 145.982 565.273 145.644C562.895 142.667 551.566 126.861 563.205 108.97Z" fill="#FFA573"/>
<path d="M563.205 108.97L571.332 96.4772C571.626 96.0253 572.087 95.7088 572.614 95.5971C573.142 95.4855 573.692 95.5879 574.144 95.8818L608.216 118.046C608.668 118.34 608.984 118.802 609.096 119.329C609.208 119.856 609.105 120.406 608.811 120.858L600.684 133.351C589.046 151.243 570.005 147.292 566.319 146.325C565.904 146.221 565.536 145.982 565.273 145.644C562.895 142.667 551.566 126.861 563.205 108.97Z" stroke="#FE765D" stroke-width="4.6" stroke-linecap="round" stroke-linejoin="round"/>
<path d="M584.53 117.186L578.989 125.704" stroke="#FE765D" stroke-width="4.6" stroke-linecap="round" stroke-linejoin="round"/>
<path d="M572.34 135.925C573.751 136.843 575.64 136.444 576.558 135.032C577.476 133.621 577.076 131.733 575.665 130.815C574.253 129.896 572.365 130.296 571.447 131.708C570.529 133.119 570.929 135.007 572.34 135.925Z" fill="#FE765D"/>
<path opacity="0.3" d="M452.971 33.1349C452.971 31.8476 452.563 30.5934 451.807 29.5519C451.05 28.5104 449.983 27.735 448.759 27.3369C447.535 26.9387 446.216 26.9382 444.992 27.3353C443.767 27.7325 442.7 28.5071 441.943 29.548L441.943 29.5474C437.292 26.7199 431.194 25.0055 424.518 25.0055C417.841 25.0055 411.744 26.7199 407.092 29.5474L407.093 29.548C406.56 28.8157 405.871 28.2114 405.075 27.7788C404.279 27.3462 403.397 27.0963 402.493 27.0471C401.589 26.998 400.685 27.1509 399.847 27.4947C399.01 27.8385 398.259 28.3646 397.65 29.0348C397.041 29.7049 396.589 30.5024 396.326 31.3691C396.064 32.2358 395.998 33.1501 396.133 34.0456C396.268 34.941 396.601 35.7951 397.107 36.5458C397.614 37.2965 398.281 37.925 399.061 38.3856L399.06 38.3854C398.427 39.9455 398.1 41.6129 398.097 43.2967C398.097 53.3986 409.926 61.5878 424.518 61.5878C439.109 61.5878 450.938 53.3986 450.938 43.2967C450.935 41.6129 450.608 39.9455 449.975 38.3854L449.975 38.3856C450.888 37.8466 451.644 37.0788 452.17 36.1579C452.695 35.2371 452.971 34.1951 452.971 33.1349V33.1349Z" fill="#FFA573"/>
<path d="M414.356 44.3129C416.601 44.3129 418.421 42.4931 418.421 40.2482C418.421 38.0033 416.601 36.1835 414.356 36.1835C412.111 36.1835 410.291 38.0033 410.291 40.2482C410.291 42.4931 412.111 44.3129 414.356 44.3129Z" fill="#FE765D"/>
<path d="M434.679 44.3129C436.924 44.3129 438.744 42.4931 438.744 40.2482C438.744 38.0033 436.924 36.1835 434.679 36.1835C432.435 36.1835 430.615 38.0033 430.615 40.2482C430.615 42.4931 432.435 44.3129 434.679 44.3129Z" fill="#FE765D"/>
<path d="M439.76 18.9085C442.005 18.9085 443.825 17.0886 443.825 14.8438C443.825 12.5989 442.005 10.7791 439.76 10.7791C437.515 10.7791 435.696 12.5989 435.696 14.8438C435.696 17.0886 437.515 18.9085 439.76 18.9085Z" stroke="#FE765D" stroke-width="4.6" stroke-linecap="round" stroke-linejoin="round"/>
<path d="M432.908 51.4261C430.313 52.7616 427.436 53.4583 424.518 53.4584C421.599 53.4584 418.723 52.7617 416.128 51.4262" stroke="#FE765D" stroke-width="4.6" stroke-linecap="round" stroke-linejoin="round"/>
<path d="M424.518 25.0055L426.55 12.8114L435.743 14.2257" stroke="#FE765D" stroke-width="4.6" stroke-linecap="round" stroke-linejoin="round"/>
<path d="M407.092 29.5474C411.743 26.7199 417.841 25.0055 424.518 25.0055C431.194 25.0055 437.292 26.7199 441.943 29.5474L441.943 29.5479C442.475 28.8157 443.165 28.2114 443.96 27.7788C444.756 27.3462 445.638 27.0963 446.542 27.0472C447.446 26.998 448.35 27.1509 449.188 27.4947C450.026 27.8385 450.776 28.3646 451.385 29.0348C451.994 29.7049 452.447 30.5024 452.709 31.3691C452.971 32.2358 453.037 33.1501 452.902 34.0455C452.767 34.941 452.434 35.7951 451.928 36.5458C451.421 37.2965 450.754 37.925 449.974 38.3856L449.975 38.3854C450.608 39.9455 450.935 41.6129 450.938 43.2967C450.938 53.3986 439.109 61.5878 424.518 61.5878C409.926 61.5878 398.097 53.3986 398.097 43.2967C398.1 41.6129 398.427 39.9455 399.06 38.3854L399.061 38.3856C398.281 37.925 397.614 37.2965 397.107 36.5458C396.601 35.7951 396.268 34.941 396.133 34.0455C395.997 33.15 396.063 32.2357 396.326 31.3689C396.588 30.5021 397.04 29.7047 397.649 29.0345C398.258 28.3643 399.009 27.8382 399.847 27.4944C400.685 27.1506 401.589 26.9977 402.493 27.0469C403.397 27.096 404.279 27.346 405.075 27.7786C405.87 28.2112 406.56 28.8157 407.092 29.5479L407.092 29.5474Z" stroke="#FE765D" stroke-width="4.6" stroke-linecap="round" stroke-linejoin="round"/>
<path opacity="0.3" d="M497.505 288.434L505.603 294.573C507.75 296.201 510.457 296.909 513.127 296.542C515.797 296.175 518.211 294.762 519.84 292.614C521.468 290.467 522.176 287.76 521.809 285.09C521.442 282.42 520.029 280.006 517.881 278.378L509.783 272.238L497.505 288.434Z" fill="#FFA573"/>
<path d="M509.783 272.238L490.795 297.284C490.593 297.551 490.46 297.863 490.408 298.194C490.355 298.524 490.385 298.862 490.495 299.179L491.595 302.349C491.702 302.657 491.881 302.934 492.118 303.158C492.354 303.382 492.641 303.546 492.954 303.636C493.267 303.726 493.597 303.739 493.917 303.675C494.236 303.611 494.535 303.471 494.789 303.267L505.603 294.573" stroke="#FE765D" stroke-width="4.6" stroke-linecap="round" stroke-linejoin="round"/>
<path d="M505.603 294.573C507.75 296.201 510.457 296.909 513.127 296.542C515.797 296.175 518.211 294.762 519.84 292.614C521.468 290.467 522.176 287.76 521.809 285.09C521.442 282.42 520.029 280.006 517.881 278.377L509.783 272.238C509.783 272.238 498.76 263.881 494.897 246.942C494.812 246.565 494.62 246.22 494.346 245.947C494.071 245.675 493.724 245.487 493.346 245.405C492.967 245.323 492.574 245.35 492.211 245.485C491.848 245.619 491.531 245.854 491.297 246.162L467.406 277.675C467.172 277.984 467.031 278.353 467 278.738C466.969 279.124 467.049 279.51 467.23 279.853C467.411 280.195 467.685 280.478 468.022 280.669C468.358 280.86 468.742 280.951 469.129 280.931C486.482 280.077 497.505 288.434 497.505 288.434L505.603 294.573Z" stroke="#FE765D" stroke-width="4.6" stroke-linecap="round" stroke-linejoin="round"/>
<path opacity="0.3" d="M456.597 161.245C455.354 159.715 454.47 157.926 454.01 156.009C453.55 154.092 453.526 152.096 453.94 150.168C456.05 149.483 458.299 149.341 460.478 149.755C462.658 150.169 464.698 151.126 466.41 152.537L466.41 152.537L474.229 150.004L474.228 150.004C474.788 147.857 475.879 145.886 477.402 144.272C478.925 142.659 480.83 141.455 482.941 140.772C484.406 142.091 485.557 143.722 486.308 145.544C487.06 147.367 487.393 149.335 487.284 151.303V151.303C489.255 152.805 490.718 154.875 491.478 157.233L492.105 159.167C493.102 162.244 492.835 165.59 491.365 168.47C489.894 171.351 487.339 173.529 484.263 174.526L472.662 178.284C469.586 179.281 466.239 179.015 463.359 177.544C460.478 176.073 458.3 173.519 457.303 170.442L456.677 168.509C455.909 166.152 455.881 163.618 456.597 161.245L456.597 161.245Z" fill="#FFA573"/>
<path d="M473.466 197.251C475.005 196.752 476.282 195.663 477.017 194.223C477.753 192.783 477.886 191.11 477.387 189.571L473.629 177.971" stroke="#FE765D" stroke-width="4.6" stroke-linecap="round" stroke-linejoin="round"/>
<path d="M494.734 190.361C493.196 190.859 491.522 190.726 490.082 189.99C488.642 189.255 487.553 187.978 487.054 186.439L483.296 174.839" stroke="#FE765D" stroke-width="4.6" stroke-linecap="round" stroke-linejoin="round"/>
<path d="M484.263 174.526L488.13 173.273C489.668 172.775 491.341 172.908 492.781 173.643C494.222 174.378 495.311 175.656 495.809 177.194L496.435 179.127C496.934 180.666 498.023 181.943 499.463 182.678C500.903 183.414 502.577 183.547 504.115 183.048" stroke="#FE765D" stroke-width="4.6" stroke-linecap="round" stroke-linejoin="round"/>
<path d="M472.662 178.284L468.795 179.537C467.257 180.035 465.98 181.124 465.244 182.565C464.509 184.005 464.376 185.678 464.874 187.216L465.501 189.15C465.999 190.688 465.866 192.361 465.131 193.802C464.395 195.242 463.118 196.331 461.58 196.829" stroke="#FE765D" stroke-width="4.6" stroke-linecap="round" stroke-linejoin="round"/>
<path d="M456.597 161.245C455.354 159.715 454.47 157.926 454.01 156.009C453.55 154.092 453.526 152.096 453.94 150.168C456.05 149.483 458.299 149.341 460.478 149.755C462.658 150.169 464.698 151.126 466.41 152.537L466.41 152.537L474.229 150.004L474.228 150.004C474.788 147.857 475.879 145.886 477.402 144.272C478.925 142.659 480.83 141.455 482.941 140.772C484.406 142.091 485.557 143.722 486.308 145.544C487.06 147.367 487.393 149.335 487.284 151.303V151.303C489.255 152.805 490.718 154.875 491.478 157.233L492.105 159.167C493.102 162.244 492.835 165.59 491.365 168.47C489.894 171.351 487.339 173.529 484.263 174.526L472.662 178.284C469.586 179.281 466.239 179.015 463.359 177.544C460.478 176.073 458.3 173.519 457.303 170.442L456.677 168.509C455.909 166.152 455.881 163.618 456.597 161.245L456.597 161.245Z" stroke="#FE765D" stroke-width="4.6" stroke-linecap="round" stroke-linejoin="round"/>
<path opacity="0.3" d="M385.895 238.703C389.337 236.809 390.592 232.483 388.698 229.041C386.804 225.599 382.479 224.344 379.037 226.238C375.595 228.132 374.34 232.457 376.234 235.899C378.127 239.341 382.453 240.596 385.895 238.703Z" fill="#FFA573"/>
<path d="M367.021 267.645L366.041 265.865C365.262 264.448 365.077 262.78 365.527 261.227C365.978 259.674 367.027 258.363 368.444 257.584L384.469 248.766C385.886 247.987 386.935 246.676 387.386 245.123C387.836 243.57 387.652 241.902 386.872 240.485L385.892 238.705" stroke="#FE765D" stroke-width="4.6" stroke-linecap="round" stroke-linejoin="round"/>
<path d="M359.183 253.4L367.021 267.645" stroke="#FE765D" stroke-width="4.6" stroke-linecap="round" stroke-linejoin="round"/>
<path d="M373.882 280.108C377.323 278.214 378.578 273.889 376.685 270.447C374.791 267.005 370.465 265.75 367.023 267.644C363.582 269.538 362.327 273.863 364.22 277.305C366.114 280.747 370.44 282.002 373.882 280.108Z" stroke="#FE765D" stroke-width="4.6" stroke-linecap="round" stroke-linejoin="round"/>
<path d="M385.895 238.703C389.337 236.809 390.592 232.483 388.698 229.041C386.804 225.599 382.479 224.344 379.037 226.238C375.595 228.132 374.34 232.457 376.234 235.899C378.127 239.341 382.453 240.596 385.895 238.703Z" stroke="#FE765D" stroke-width="4.6" stroke-linecap="round" stroke-linejoin="round"/>
<path d="M359.185 253.398C362.627 251.505 363.882 247.179 361.989 243.737C360.095 240.295 355.769 239.04 352.327 240.934C348.886 242.828 347.63 247.153 349.524 250.595C351.418 254.037 355.744 255.292 359.185 253.398Z" stroke="#FE765D" stroke-width="4.6" stroke-linecap="round" stroke-linejoin="round"/>
<path opacity="0.3" d="M278.988 50.6284L284.532 52.4887C286.358 53.108 288.298 53.3202 290.215 53.1104C292.133 52.9007 293.981 52.274 295.63 51.2745C297.279 50.2749 298.69 48.9267 299.763 47.3242C300.836 45.7218 301.546 43.904 301.842 41.9983L301.84 41.9979L298.869 63.6406C298.638 65.1357 297.936 66.5182 296.866 67.5873C295.795 68.6564 294.412 69.3565 292.917 69.5859C291.422 69.8153 289.892 69.562 288.551 68.8629C287.209 68.1637 286.125 67.0551 285.457 65.6981L285.457 65.6978L278.988 50.6284Z" fill="#FFA573"/>
<path d="M283.948 38.4071L291.645 41.0241" stroke="#FE765D" stroke-width="4.6" stroke-linecap="round" stroke-linejoin="round"/>
<path d="M264.707 31.8645L272.404 34.4815" stroke="#FE765D" stroke-width="4.6" stroke-linecap="round" stroke-linejoin="round"/>
<path d="M269.864 29.3247L267.247 37.0214" stroke="#FE765D" stroke-width="4.6" stroke-linecap="round" stroke-linejoin="round"/>
<path d="M293.037 27.4746L271.847 20.3392C268.906 19.3396 265.708 19.4077 262.812 20.5316C259.917 21.6555 257.51 23.7634 256.014 26.4853L256.016 26.4864L245.197 45.3909C244.468 46.7169 244.182 48.2405 244.379 49.7404C244.575 51.2403 245.245 52.6385 246.291 53.7318C247.336 54.8251 248.703 55.5567 250.193 55.8202C251.682 56.0838 253.217 55.8656 254.574 55.1973L254.574 55.1967L268.882 47.2372L284.532 52.4887C287.849 53.6166 291.478 53.3806 294.621 51.8326C297.764 50.2846 300.164 47.5514 301.292 44.2344C302.42 40.9173 302.184 37.288 300.636 34.145C299.088 31.0019 296.354 28.6025 293.037 27.4746V27.4746Z" stroke="#FE765D" stroke-width="4.6" stroke-linecap="round" stroke-linejoin="round"/>
<path d="M301.84 41.9979L298.869 63.6406C298.638 65.1357 297.936 66.5182 296.866 67.5873C295.795 68.6564 294.412 69.3565 292.917 69.5859C291.422 69.8153 289.892 69.562 288.551 68.8629C287.209 68.1637 286.125 67.0551 285.457 65.6981L285.457 65.6978L278.988 50.6284" stroke="#FE765D" stroke-width="4.6" stroke-linecap="round" stroke-linejoin="round"/>
<path opacity="0.3" d="M42.8182 129.796C56.0379 127.216 64.6626 114.407 62.0819 101.187C59.5012 87.9674 46.6925 79.3427 33.4728 81.9234C20.2531 84.504 11.6284 97.3128 14.2091 110.532C16.7897 123.752 29.5985 132.377 42.8182 129.796Z" fill="#FFA573"/>
<path d="M35.4197 91.8969L36.1985 95.8863" stroke="#FE765D" stroke-width="4.6" stroke-linecap="round" stroke-linejoin="round"/>
<path d="M40.0924 115.833L40.8712 119.823" stroke="#FE765D" stroke-width="4.6" stroke-linecap="round" stroke-linejoin="round"/>
<path d="M42.8182 129.796C56.0379 127.216 64.6626 114.407 62.0819 101.187C59.5012 87.9674 46.6925 79.3427 33.4728 81.9234C20.2531 84.504 11.6284 97.3128 14.2091 110.532C16.7897 123.752 29.5985 132.377 42.8182 129.796Z" stroke="#FE765D" stroke-width="4.6" stroke-linecap="round" stroke-linejoin="round"/>
<path d="M34.1081 117.001L43.0843 115.249C44.4068 114.991 45.5727 114.218 46.3253 113.1C47.0779 111.983 47.3557 110.612 47.0975 109.289C46.8393 107.966 46.0664 106.801 44.9486 106.048C43.8308 105.295 42.4599 105.018 41.1373 105.276L35.1532 106.444C33.8306 106.702 32.4597 106.424 31.3419 105.672C30.2241 104.919 29.4511 103.753 29.193 102.431C28.9348 101.108 29.2126 99.7371 29.9652 98.6193C30.7178 97.5015 31.8837 96.7286 33.2062 96.4704L42.1824 94.7181" stroke="#FE765D" stroke-width="4.6" stroke-linecap="round" stroke-linejoin="round"/>
<path opacity="0.3" d="M397.32 413.868C396.986 422.294 384.561 424.555 380 426.214L369.5 436.214C362.816 438.647 352.279 431.627 347.761 419.213C346.755 416.448 346.571 413.451 347.231 410.583C347.891 407.716 349.366 405.1 351.48 403.053C353.593 401.006 356.254 399.614 359.141 399.045C362.028 398.477 365.018 398.756 367.75 399.85C368.734 398.014 370.084 396.399 371.716 395.105C373.349 393.812 375.229 392.866 377.242 392.327C379.254 391.789 381.355 391.668 383.416 391.973C385.476 392.278 387.453 393.002 389.223 394.1C387.854 395.799 386.967 397.834 386.653 399.993C386.338 402.152 386.609 404.355 387.435 406.374C388.262 408.392 389.615 410.153 391.353 411.471C393.091 412.789 395.151 413.616 397.318 413.868L397.32 413.868Z" fill="#FFA573"/>
<path d="M366.799 389.714C366.83 388.071 367.357 386.476 368.312 385.139C369.267 383.802 370.605 382.785 372.149 382.223" stroke="#FE765D" stroke-width="4.6" stroke-linecap="round" stroke-linejoin="round"/>
<path d="M397.32 413.868C391.353 419.213 387.977 421.055 383.416 422.714L366 436.214C359.316 438.647 352.279 431.627 347.761 419.213C346.755 416.448 346.571 413.451 347.231 410.583C347.891 407.716 349.366 405.1 351.48 403.053C353.593 401.006 356.254 399.614 359.141 399.045C362.028 398.477 365.018 398.756 367.75 399.85C368.734 398.014 370.084 396.399 371.716 395.105C373.349 393.812 375.229 392.866 377.242 392.327C379.254 391.789 381.355 391.668 383.416 391.973C385.476 392.278 387.453 393.002 389.223 394.1C387.854 395.799 386.967 397.834 386.653 399.993C386.338 402.152 386.609 404.355 387.435 406.374C388.262 408.392 389.615 410.153 391.353 411.471C393.091 412.789 395.151 413.616 397.318 413.868L397.32 413.868Z" stroke="#FE765D" stroke-width="4.6" stroke-linecap="round" stroke-linejoin="round"/>
<path opacity="0.3" d="M101.839 189.454L108.285 194.406C112.56 197.69 115.355 202.537 116.055 207.882C116.756 213.226 115.304 218.63 112.021 222.904C108.737 227.179 103.89 229.973 98.5452 230.674C93.2008 231.374 87.797 229.923 83.5226 226.639L77.0759 221.687L101.839 189.454Z" fill="#FFA573"/>
<path d="M58.9742 205.218L65.4908 204.027" stroke="#FE765D" stroke-width="4.6" stroke-linecap="round" stroke-linejoin="round"/>
<path d="M81.2607 176.208L81.7902 182.811" stroke="#FE765D" stroke-width="4.6" stroke-linecap="round" stroke-linejoin="round"/>
<path d="M108.286 194.406C112.56 197.69 115.355 202.537 116.055 207.882C116.756 213.226 115.305 218.63 112.021 222.904C108.737 227.179 103.89 229.973 98.5454 230.674C93.201 231.374 87.7972 229.923 83.5228 226.639L73.8528 219.211C69.5783 215.927 66.7835 211.08 66.083 205.735C65.3825 200.391 66.8337 194.987 70.1175 190.713C73.4012 186.438 78.2485 183.643 83.5929 182.943C88.9373 182.242 94.3411 183.694 98.6155 186.977L108.286 194.406Z" stroke="#FE765D" stroke-width="4.6" stroke-linecap="round" stroke-linejoin="round"/>
<path d="M101.839 189.454L77.0759 221.687" stroke="#FE765D" stroke-width="4.6" stroke-linecap="round" stroke-linejoin="round"/>
<path d="M80.2889 207.497C81.3146 206.161 81.0637 204.248 79.7286 203.222C78.3934 202.196 76.4796 202.447 75.4539 203.782C74.4282 205.117 74.679 207.031 76.0142 208.057C77.3493 209.083 79.2632 208.832 80.2889 207.497Z" fill="#FE765D"/>
<path d="M88.9559 196.215C89.9816 194.88 89.7307 192.966 88.3956 191.94C87.0604 190.914 85.1466 191.165 84.1209 192.5C83.0952 193.836 83.346 195.749 84.6812 196.775C86.0163 197.801 87.9302 197.55 88.9559 196.215Z" fill="#FE765D"/>
<path opacity="0.3" d="M353.714 158.245L361.628 139.089L346.853 129.967L380.658 105.551L372.744 124.707L387.519 133.829L353.714 158.245Z" fill="#FFA573"/>
<path d="M353.714 158.245L361.628 139.089L346.853 129.967L380.658 105.551L372.744 124.707L387.519 133.829L353.714 158.245Z" stroke="#FE765D" stroke-width="4.6" stroke-linecap="round" stroke-linejoin="round"/>
<path opacity="0.3" d="M251.482 193.338C247.532 191.728 244.19 188.915 241.927 185.299C239.665 181.683 238.597 177.447 238.876 173.191C239.155 168.935 240.765 164.874 243.48 161.584C246.195 158.294 249.876 155.942 254.002 154.86C258.128 153.778 262.489 154.022 266.469 155.557C270.449 157.092 273.845 159.84 276.176 163.412C278.507 166.984 279.655 171.199 279.458 175.459C279.26 179.72 277.728 183.811 275.076 187.152" fill="#FFA573"/>
<path d="M257.477 200.17L273.204 196.047" stroke="#FE765D" stroke-width="4.6" stroke-linecap="round" stroke-linejoin="round"/>
<path d="M261.505 207.518L273.3 204.426" stroke="#FE765D" stroke-width="4.6" stroke-linecap="round" stroke-linejoin="round"/>
<path d="M251.482 193.338C247.532 191.728 244.19 188.915 241.927 185.299C239.665 181.683 238.597 177.447 238.876 173.191C239.155 168.935 240.765 164.874 243.48 161.584C246.195 158.294 249.876 155.942 254.002 154.86C258.128 153.778 262.489 154.022 266.469 155.557C270.449 157.092 273.845 159.84 276.176 163.412C278.507 166.984 279.655 171.199 279.458 175.459C279.26 179.72 277.728 183.811 275.076 187.152" stroke="#FE765D" stroke-width="4.6" stroke-linecap="round" stroke-linejoin="round"/>
<path opacity="0.3" d="M273.747 363.801C273.703 359.591 275.115 355.495 277.743 352.206C280.37 348.916 284.053 346.635 288.169 345.748C292.284 344.86 296.58 345.421 300.33 347.335C304.08 349.249 307.054 352.399 308.749 356.253C310.444 360.107 310.757 364.428 309.634 368.486C308.511 372.543 306.022 376.089 302.587 378.523C299.152 380.957 294.982 382.131 290.781 381.845C286.581 381.559 282.608 379.832 279.534 376.955L279.534 376.955L275.204 378.86L269.521 376.65L267.311 382.332L261.629 380.122L259.418 385.804L249.948 382.12L253.632 372.65L273.747 363.801L273.747 363.801Z" fill="#FFA573"/>
<path d="M273.747 363.801C273.703 359.591 275.115 355.495 277.743 352.206C280.37 348.916 284.053 346.635 288.169 345.748C292.284 344.86 296.58 345.421 300.33 347.335C304.08 349.249 307.054 352.399 308.749 356.253C310.444 360.107 310.757 364.428 309.634 368.486C308.511 372.543 306.022 376.089 302.587 378.523C299.152 380.957 294.982 382.131 290.781 381.845C286.581 381.559 282.608 379.832 279.534 376.955L279.534 376.955L275.204 378.86L269.521 376.65L267.311 382.332L261.629 380.122L259.418 385.804L249.948 382.12L253.632 372.65L273.747 363.801L273.747 363.801Z" stroke="#FE765D" stroke-width="4.6" stroke-linecap="round" stroke-linejoin="round"/>
<path d="M297.513 363.55C299.082 364.161 300.849 363.384 301.459 361.814C302.07 360.245 301.293 358.478 299.723 357.868C298.154 357.258 296.388 358.035 295.777 359.604C295.167 361.173 295.944 362.94 297.513 363.55Z" fill="#FE765D"/>
<path opacity="0.3" d="M160.616 272.476L171.791 246.598C172.33 245.35 173.342 244.368 174.605 243.866C175.869 243.365 177.28 243.386 178.527 243.925L225.578 264.242C226.826 264.781 227.809 265.793 228.31 267.057C228.812 268.32 228.79 269.731 228.252 270.979L217.077 296.857L160.616 272.476Z" fill="#FFA573"/>
<path d="M160.242 286.27L207.293 306.588C209.891 307.71 212.908 306.513 214.03 303.914L228.252 270.979C229.374 268.38 228.177 265.364 225.578 264.242L178.527 243.925C175.929 242.803 172.913 244 171.791 246.598L157.569 279.534C156.447 282.132 157.644 285.148 160.242 286.27Z" stroke="#FE765D" stroke-width="4.6" stroke-linecap="round" stroke-linejoin="round"/>
<path d="M189.114 309.903L170.294 301.776" stroke="#FE765D" stroke-width="4.6" stroke-linecap="round" stroke-linejoin="round"/>
<path d="M160.616 272.476L217.077 296.857" stroke="#FE765D" stroke-width="4.6" stroke-linecap="round" stroke-linejoin="round"/>
<path d="M183.767 296.429L179.704 305.839" stroke="#FE765D" stroke-width="4.6" stroke-linecap="round" stroke-linejoin="round"/>
<path d="M445.875 379.089L340.023 454.558H292.977L187.125 379.089" stroke="#D6D6D6" stroke-width="6" stroke-linecap="round" stroke-linejoin="round"/>
<defs>
<linearGradient id="paint0_linear" x1="314.996" y1="629.784" x2="327.056" y2="50.3029" gradientUnits="userSpaceOnUse">
<stop stop-color="#FFA573"/>
<stop offset="0.822537" stop-color="#FFA573" stop-opacity="0"/>
</linearGradient>
</defs>
</svg>
